<mxfile host="app.diagrams.net" modified="2023-04-06T01:53:48.819Z" agent="Mozilla/5.0 (Windows NT 10.0; Win64; x64) AppleWebKit/537.36 (KHTML, like Gecko) Chrome/111.0.0.0 Safari/537.36" etag="aYHbn5OhmPqwx3CiE5DO" version="21.1.4" type="github">
  <diagram id="C5RBs43oDa-KdzZeNtuy" name="Page-1">
    <mxGraphModel dx="1434" dy="766" grid="1" gridSize="10" guides="1" tooltips="1" connect="1" arrows="1" fold="1" page="1" pageScale="1" pageWidth="827" pageHeight="1169" math="0" shadow="0">
      <root>
        <mxCell id="WIyWlLk6GJQsqaUBKTNV-0" />
        <mxCell id="WIyWlLk6GJQsqaUBKTNV-1" parent="WIyWlLk6GJQsqaUBKTNV-0" />
        <mxCell id="266Brj4KPM92YKpS748g-17" style="edgeStyle=orthogonalEdgeStyle;rounded=0;orthogonalLoop=1;jettySize=auto;html=1;entryX=0;entryY=0.5;entryDx=0;entryDy=0;" edge="1" parent="WIyWlLk6GJQsqaUBKTNV-1" target="266Brj4KPM92YKpS748g-11">
          <mxGeometry relative="1" as="geometry">
            <mxPoint x="430" y="140" as="sourcePoint" />
          </mxGeometry>
        </mxCell>
        <mxCell id="266Brj4KPM92YKpS748g-18" value="Request" style="edgeLabel;html=1;align=center;verticalAlign=middle;resizable=0;points=[];" vertex="1" connectable="0" parent="266Brj4KPM92YKpS748g-17">
          <mxGeometry x="-0.1833" y="1" relative="1" as="geometry">
            <mxPoint as="offset" />
          </mxGeometry>
        </mxCell>
        <mxCell id="266Brj4KPM92YKpS748g-58" style="edgeStyle=orthogonalEdgeStyle;rounded=0;orthogonalLoop=1;jettySize=auto;html=1;entryX=0;entryY=0.5;entryDx=0;entryDy=0;" edge="1" parent="WIyWlLk6GJQsqaUBKTNV-1" source="WIyWlLk6GJQsqaUBKTNV-6" target="266Brj4KPM92YKpS748g-57">
          <mxGeometry relative="1" as="geometry">
            <Array as="points">
              <mxPoint x="380" y="220" />
              <mxPoint x="460" y="220" />
              <mxPoint x="460" y="310" />
              <mxPoint x="300" y="310" />
              <mxPoint x="300" y="500" />
            </Array>
          </mxGeometry>
        </mxCell>
        <mxCell id="WIyWlLk6GJQsqaUBKTNV-6" value="Load Index Page(Login)" style="rhombus;whiteSpace=wrap;html=1;shadow=0;fontFamily=Helvetica;fontSize=12;align=center;strokeWidth=1;spacing=6;spacingTop=-4;" parent="WIyWlLk6GJQsqaUBKTNV-1" vertex="1">
          <mxGeometry x="330" y="100" width="100" height="80" as="geometry" />
        </mxCell>
        <mxCell id="266Brj4KPM92YKpS748g-0" value="User" style="rounded=0;whiteSpace=wrap;html=1;" vertex="1" parent="WIyWlLk6GJQsqaUBKTNV-1">
          <mxGeometry x="30" y="10" width="220" height="60" as="geometry" />
        </mxCell>
        <mxCell id="266Brj4KPM92YKpS748g-4" value="Frontend" style="rounded=0;whiteSpace=wrap;html=1;" vertex="1" parent="WIyWlLk6GJQsqaUBKTNV-1">
          <mxGeometry x="270" y="10" width="220" height="60" as="geometry" />
        </mxCell>
        <mxCell id="266Brj4KPM92YKpS748g-5" value="SAP Service Layer" style="rounded=0;whiteSpace=wrap;html=1;" vertex="1" parent="WIyWlLk6GJQsqaUBKTNV-1">
          <mxGeometry x="990" y="10" width="220" height="60" as="geometry" />
        </mxCell>
        <mxCell id="266Brj4KPM92YKpS748g-6" value="API" style="rounded=0;whiteSpace=wrap;html=1;" vertex="1" parent="WIyWlLk6GJQsqaUBKTNV-1">
          <mxGeometry x="510" y="10" width="220" height="60" as="geometry" />
        </mxCell>
        <mxCell id="266Brj4KPM92YKpS748g-7" value="Backend" style="rounded=0;whiteSpace=wrap;html=1;" vertex="1" parent="WIyWlLk6GJQsqaUBKTNV-1">
          <mxGeometry x="750" y="10" width="220" height="60" as="geometry" />
        </mxCell>
        <mxCell id="266Brj4KPM92YKpS748g-13" style="edgeStyle=orthogonalEdgeStyle;rounded=0;orthogonalLoop=1;jettySize=auto;html=1;entryX=0;entryY=0.5;entryDx=0;entryDy=0;" edge="1" parent="WIyWlLk6GJQsqaUBKTNV-1" source="266Brj4KPM92YKpS748g-11" target="266Brj4KPM92YKpS748g-12">
          <mxGeometry relative="1" as="geometry" />
        </mxCell>
        <mxCell id="266Brj4KPM92YKpS748g-28" value="Post Request" style="edgeLabel;html=1;align=center;verticalAlign=middle;resizable=0;points=[];" vertex="1" connectable="0" parent="266Brj4KPM92YKpS748g-13">
          <mxGeometry x="-0.2182" y="2" relative="1" as="geometry">
            <mxPoint as="offset" />
          </mxGeometry>
        </mxCell>
        <mxCell id="266Brj4KPM92YKpS748g-22" style="edgeStyle=orthogonalEdgeStyle;rounded=0;orthogonalLoop=1;jettySize=auto;html=1;entryX=1;entryY=0.5;entryDx=0;entryDy=0;" edge="1" parent="WIyWlLk6GJQsqaUBKTNV-1" source="266Brj4KPM92YKpS748g-11" target="266Brj4KPM92YKpS748g-21">
          <mxGeometry relative="1" as="geometry">
            <Array as="points">
              <mxPoint x="610" y="370" />
            </Array>
          </mxGeometry>
        </mxCell>
        <mxCell id="266Brj4KPM92YKpS748g-24" value="Fail" style="edgeLabel;html=1;align=center;verticalAlign=middle;resizable=0;points=[];" vertex="1" connectable="0" parent="266Brj4KPM92YKpS748g-22">
          <mxGeometry x="-0.6162" y="-1" relative="1" as="geometry">
            <mxPoint as="offset" />
          </mxGeometry>
        </mxCell>
        <mxCell id="266Brj4KPM92YKpS748g-91" value="User Not Found" style="edgeLabel;html=1;align=center;verticalAlign=middle;resizable=0;points=[];" vertex="1" connectable="0" parent="266Brj4KPM92YKpS748g-22">
          <mxGeometry x="-0.3838" y="3" relative="1" as="geometry">
            <mxPoint as="offset" />
          </mxGeometry>
        </mxCell>
        <mxCell id="266Brj4KPM92YKpS748g-92" value="Username/Password Not Match" style="edgeLabel;html=1;align=center;verticalAlign=middle;resizable=0;points=[];" vertex="1" connectable="0" parent="266Brj4KPM92YKpS748g-22">
          <mxGeometry x="-0.173" y="1" relative="1" as="geometry">
            <mxPoint as="offset" />
          </mxGeometry>
        </mxCell>
        <mxCell id="266Brj4KPM92YKpS748g-34" style="edgeStyle=orthogonalEdgeStyle;rounded=0;orthogonalLoop=1;jettySize=auto;html=1;entryX=1;entryY=1;entryDx=0;entryDy=0;" edge="1" parent="WIyWlLk6GJQsqaUBKTNV-1" source="266Brj4KPM92YKpS748g-11">
          <mxGeometry relative="1" as="geometry">
            <mxPoint x="405" y="160" as="targetPoint" />
            <Array as="points">
              <mxPoint x="570" y="200" />
              <mxPoint x="405" y="200" />
            </Array>
          </mxGeometry>
        </mxCell>
        <mxCell id="266Brj4KPM92YKpS748g-35" value="Respond" style="edgeLabel;html=1;align=center;verticalAlign=middle;resizable=0;points=[];" vertex="1" connectable="0" parent="266Brj4KPM92YKpS748g-34">
          <mxGeometry x="-0.2055" y="-1" relative="1" as="geometry">
            <mxPoint as="offset" />
          </mxGeometry>
        </mxCell>
        <mxCell id="266Brj4KPM92YKpS748g-11" value="Request to Login Backend" style="rounded=1;whiteSpace=wrap;html=1;" vertex="1" parent="WIyWlLk6GJQsqaUBKTNV-1">
          <mxGeometry x="560" y="110" width="120" height="60" as="geometry" />
        </mxCell>
        <mxCell id="266Brj4KPM92YKpS748g-16" style="edgeStyle=orthogonalEdgeStyle;rounded=0;orthogonalLoop=1;jettySize=auto;html=1;entryX=0;entryY=0.5;entryDx=0;entryDy=0;" edge="1" parent="WIyWlLk6GJQsqaUBKTNV-1" source="266Brj4KPM92YKpS748g-12" target="266Brj4KPM92YKpS748g-15">
          <mxGeometry relative="1" as="geometry" />
        </mxCell>
        <mxCell id="266Brj4KPM92YKpS748g-32" style="edgeStyle=orthogonalEdgeStyle;rounded=0;orthogonalLoop=1;jettySize=auto;html=1;entryX=1;entryY=0.75;entryDx=0;entryDy=0;" edge="1" parent="WIyWlLk6GJQsqaUBKTNV-1" source="266Brj4KPM92YKpS748g-12" target="266Brj4KPM92YKpS748g-11">
          <mxGeometry relative="1" as="geometry">
            <Array as="points">
              <mxPoint x="750" y="155" />
              <mxPoint x="750" y="155" />
            </Array>
          </mxGeometry>
        </mxCell>
        <mxCell id="266Brj4KPM92YKpS748g-33" value="Respond" style="edgeLabel;html=1;align=center;verticalAlign=middle;resizable=0;points=[];" vertex="1" connectable="0" parent="266Brj4KPM92YKpS748g-32">
          <mxGeometry x="-0.3091" y="-1" relative="1" as="geometry">
            <mxPoint as="offset" />
          </mxGeometry>
        </mxCell>
        <mxCell id="266Brj4KPM92YKpS748g-98" style="edgeStyle=orthogonalEdgeStyle;rounded=0;orthogonalLoop=1;jettySize=auto;html=1;entryX=1;entryY=0.25;entryDx=0;entryDy=0;" edge="1" parent="WIyWlLk6GJQsqaUBKTNV-1" source="266Brj4KPM92YKpS748g-12" target="266Brj4KPM92YKpS748g-100">
          <mxGeometry relative="1" as="geometry">
            <mxPoint x="940" y="320" as="targetPoint" />
            <Array as="points">
              <mxPoint x="900" y="190" />
              <mxPoint x="970" y="190" />
              <mxPoint x="970" y="335" />
            </Array>
          </mxGeometry>
        </mxCell>
        <mxCell id="266Brj4KPM92YKpS748g-12" value="/api/v1/Sap/SapLogin" style="rounded=1;whiteSpace=wrap;html=1;" vertex="1" parent="WIyWlLk6GJQsqaUBKTNV-1">
          <mxGeometry x="800" y="110" width="120" height="60" as="geometry" />
        </mxCell>
        <mxCell id="266Brj4KPM92YKpS748g-30" style="edgeStyle=orthogonalEdgeStyle;rounded=0;orthogonalLoop=1;jettySize=auto;html=1;entryX=1;entryY=0.75;entryDx=0;entryDy=0;" edge="1" parent="WIyWlLk6GJQsqaUBKTNV-1" source="266Brj4KPM92YKpS748g-15" target="266Brj4KPM92YKpS748g-12">
          <mxGeometry relative="1" as="geometry">
            <Array as="points">
              <mxPoint x="990" y="155" />
              <mxPoint x="990" y="155" />
            </Array>
          </mxGeometry>
        </mxCell>
        <mxCell id="266Brj4KPM92YKpS748g-31" value="Respond" style="edgeLabel;html=1;align=center;verticalAlign=middle;resizable=0;points=[];" vertex="1" connectable="0" parent="266Brj4KPM92YKpS748g-30">
          <mxGeometry x="-0.2" y="1" relative="1" as="geometry">
            <mxPoint as="offset" />
          </mxGeometry>
        </mxCell>
        <mxCell id="266Brj4KPM92YKpS748g-15" value="/b1s/v1/Login" style="rounded=1;whiteSpace=wrap;html=1;" vertex="1" parent="WIyWlLk6GJQsqaUBKTNV-1">
          <mxGeometry x="1040" y="110" width="120" height="60" as="geometry" />
        </mxCell>
        <mxCell id="266Brj4KPM92YKpS748g-38" style="edgeStyle=orthogonalEdgeStyle;rounded=0;orthogonalLoop=1;jettySize=auto;html=1;entryX=0.62;entryY=0.938;entryDx=0;entryDy=0;entryPerimeter=0;" edge="1" parent="WIyWlLk6GJQsqaUBKTNV-1" source="266Brj4KPM92YKpS748g-21" target="WIyWlLk6GJQsqaUBKTNV-6">
          <mxGeometry relative="1" as="geometry">
            <mxPoint x="355" y="160" as="targetPoint" />
            <Array as="points">
              <mxPoint x="380" y="330" />
              <mxPoint x="490" y="330" />
              <mxPoint x="490" y="210" />
              <mxPoint x="392" y="210" />
            </Array>
          </mxGeometry>
        </mxCell>
        <mxCell id="266Brj4KPM92YKpS748g-21" value="Login Fail Message" style="rounded=1;whiteSpace=wrap;html=1;" vertex="1" parent="WIyWlLk6GJQsqaUBKTNV-1">
          <mxGeometry x="320" y="340" width="120" height="60" as="geometry" />
        </mxCell>
        <mxCell id="266Brj4KPM92YKpS748g-46" value="Show 404 Error, Error Message contain contact IT" style="rounded=1;whiteSpace=wrap;html=1;" vertex="1" parent="WIyWlLk6GJQsqaUBKTNV-1">
          <mxGeometry x="320" y="230" width="120" height="60" as="geometry" />
        </mxCell>
        <mxCell id="266Brj4KPM92YKpS748g-48" style="edgeStyle=orthogonalEdgeStyle;rounded=0;orthogonalLoop=1;jettySize=auto;html=1;entryX=0;entryY=0.5;entryDx=0;entryDy=0;" edge="1" parent="WIyWlLk6GJQsqaUBKTNV-1" source="266Brj4KPM92YKpS748g-47">
          <mxGeometry relative="1" as="geometry">
            <mxPoint x="330" y="140" as="targetPoint" />
          </mxGeometry>
        </mxCell>
        <mxCell id="266Brj4KPM92YKpS748g-52" value="Success" style="edgeLabel;html=1;align=center;verticalAlign=middle;resizable=0;points=[];" vertex="1" connectable="0" parent="266Brj4KPM92YKpS748g-48">
          <mxGeometry x="-0.1846" y="-2" relative="1" as="geometry">
            <mxPoint as="offset" />
          </mxGeometry>
        </mxCell>
        <mxCell id="266Brj4KPM92YKpS748g-55" style="edgeStyle=orthogonalEdgeStyle;rounded=0;orthogonalLoop=1;jettySize=auto;html=1;entryX=0;entryY=0.5;entryDx=0;entryDy=0;" edge="1" parent="WIyWlLk6GJQsqaUBKTNV-1" source="266Brj4KPM92YKpS748g-47" target="266Brj4KPM92YKpS748g-46">
          <mxGeometry relative="1" as="geometry">
            <Array as="points">
              <mxPoint x="140" y="260" />
            </Array>
          </mxGeometry>
        </mxCell>
        <mxCell id="266Brj4KPM92YKpS748g-56" value="Fail" style="edgeLabel;html=1;align=center;verticalAlign=middle;resizable=0;points=[];" vertex="1" connectable="0" parent="266Brj4KPM92YKpS748g-55">
          <mxGeometry x="-0.0963" relative="1" as="geometry">
            <mxPoint as="offset" />
          </mxGeometry>
        </mxCell>
        <mxCell id="266Brj4KPM92YKpS748g-47" value="Open Transfer Webpage" style="rounded=1;whiteSpace=wrap;html=1;" vertex="1" parent="WIyWlLk6GJQsqaUBKTNV-1">
          <mxGeometry x="80" y="110" width="120" height="60" as="geometry" />
        </mxCell>
        <mxCell id="266Brj4KPM92YKpS748g-50" style="edgeStyle=orthogonalEdgeStyle;rounded=0;orthogonalLoop=1;jettySize=auto;html=1;exitX=1;exitY=0;exitDx=0;exitDy=0;entryX=0;entryY=0;entryDx=0;entryDy=0;" edge="1" parent="WIyWlLk6GJQsqaUBKTNV-1" source="WIyWlLk6GJQsqaUBKTNV-6" target="WIyWlLk6GJQsqaUBKTNV-6">
          <mxGeometry relative="1" as="geometry">
            <Array as="points">
              <mxPoint x="405" y="110" />
              <mxPoint x="460" y="110" />
              <mxPoint x="460" y="80" />
              <mxPoint x="300" y="80" />
              <mxPoint x="300" y="110" />
              <mxPoint x="355" y="110" />
            </Array>
          </mxGeometry>
        </mxCell>
        <mxCell id="266Brj4KPM92YKpS748g-51" value="Session expired at 30 minutes" style="edgeLabel;html=1;align=center;verticalAlign=middle;resizable=0;points=[];" vertex="1" connectable="0" parent="266Brj4KPM92YKpS748g-50">
          <mxGeometry x="-0.12" y="2" relative="1" as="geometry">
            <mxPoint x="-21" y="8" as="offset" />
          </mxGeometry>
        </mxCell>
        <mxCell id="266Brj4KPM92YKpS748g-62" style="edgeStyle=orthogonalEdgeStyle;rounded=0;orthogonalLoop=1;jettySize=auto;html=1;entryX=0.5;entryY=0;entryDx=0;entryDy=0;" edge="1" parent="WIyWlLk6GJQsqaUBKTNV-1" source="266Brj4KPM92YKpS748g-57" target="266Brj4KPM92YKpS748g-61">
          <mxGeometry relative="1" as="geometry">
            <Array as="points">
              <mxPoint x="140" y="520" />
            </Array>
          </mxGeometry>
        </mxCell>
        <mxCell id="266Brj4KPM92YKpS748g-63" value="Wait for Batch Number" style="edgeLabel;html=1;align=center;verticalAlign=middle;resizable=0;points=[];" vertex="1" connectable="0" parent="266Brj4KPM92YKpS748g-62">
          <mxGeometry x="-0.0698" y="-2" relative="1" as="geometry">
            <mxPoint as="offset" />
          </mxGeometry>
        </mxCell>
        <mxCell id="266Brj4KPM92YKpS748g-57" value="Transfer Page(Form)" style="rounded=1;whiteSpace=wrap;html=1;" vertex="1" parent="WIyWlLk6GJQsqaUBKTNV-1">
          <mxGeometry x="320" y="470" width="120" height="60" as="geometry" />
        </mxCell>
        <mxCell id="266Brj4KPM92YKpS748g-65" style="edgeStyle=orthogonalEdgeStyle;rounded=0;orthogonalLoop=1;jettySize=auto;html=1;entryX=0;entryY=0.5;entryDx=0;entryDy=0;" edge="1" parent="WIyWlLk6GJQsqaUBKTNV-1" source="266Brj4KPM92YKpS748g-61" target="266Brj4KPM92YKpS748g-64">
          <mxGeometry relative="1" as="geometry">
            <Array as="points">
              <mxPoint x="140" y="630" />
            </Array>
          </mxGeometry>
        </mxCell>
        <mxCell id="266Brj4KPM92YKpS748g-66" value="Press Search Button" style="edgeLabel;html=1;align=center;verticalAlign=middle;resizable=0;points=[];" vertex="1" connectable="0" parent="266Brj4KPM92YKpS748g-65">
          <mxGeometry x="0.241" y="-3" relative="1" as="geometry">
            <mxPoint x="-26" y="-3" as="offset" />
          </mxGeometry>
        </mxCell>
        <mxCell id="266Brj4KPM92YKpS748g-61" value="Enter Batch Number" style="rounded=1;whiteSpace=wrap;html=1;" vertex="1" parent="WIyWlLk6GJQsqaUBKTNV-1">
          <mxGeometry x="80" y="555" width="120" height="60" as="geometry" />
        </mxCell>
        <mxCell id="266Brj4KPM92YKpS748g-68" style="edgeStyle=orthogonalEdgeStyle;rounded=0;orthogonalLoop=1;jettySize=auto;html=1;entryX=0;entryY=0.5;entryDx=0;entryDy=0;" edge="1" parent="WIyWlLk6GJQsqaUBKTNV-1" source="266Brj4KPM92YKpS748g-64" target="266Brj4KPM92YKpS748g-67">
          <mxGeometry relative="1" as="geometry" />
        </mxCell>
        <mxCell id="266Brj4KPM92YKpS748g-69" value="Attach Batch Number as filter" style="edgeLabel;html=1;align=center;verticalAlign=middle;resizable=0;points=[];" vertex="1" connectable="0" parent="266Brj4KPM92YKpS748g-68">
          <mxGeometry x="-0.12" y="-1" relative="1" as="geometry">
            <mxPoint as="offset" />
          </mxGeometry>
        </mxCell>
        <mxCell id="266Brj4KPM92YKpS748g-64" value="Batch Number button Event Listener" style="rounded=1;whiteSpace=wrap;html=1;" vertex="1" parent="WIyWlLk6GJQsqaUBKTNV-1">
          <mxGeometry x="320" y="600" width="120" height="60" as="geometry" />
        </mxCell>
        <mxCell id="266Brj4KPM92YKpS748g-71" style="edgeStyle=orthogonalEdgeStyle;rounded=0;orthogonalLoop=1;jettySize=auto;html=1;entryX=0;entryY=0.5;entryDx=0;entryDy=0;" edge="1" parent="WIyWlLk6GJQsqaUBKTNV-1" source="266Brj4KPM92YKpS748g-67" target="266Brj4KPM92YKpS748g-70">
          <mxGeometry relative="1" as="geometry" />
        </mxCell>
        <mxCell id="266Brj4KPM92YKpS748g-72" value="Get Request" style="edgeLabel;html=1;align=center;verticalAlign=middle;resizable=0;points=[];" vertex="1" connectable="0" parent="266Brj4KPM92YKpS748g-71">
          <mxGeometry x="0.2333" y="-3" relative="1" as="geometry">
            <mxPoint x="-14" y="-3" as="offset" />
          </mxGeometry>
        </mxCell>
        <mxCell id="266Brj4KPM92YKpS748g-77" style="edgeStyle=orthogonalEdgeStyle;rounded=0;orthogonalLoop=1;jettySize=auto;html=1;entryX=1;entryY=0.5;entryDx=0;entryDy=0;" edge="1" parent="WIyWlLk6GJQsqaUBKTNV-1" source="266Brj4KPM92YKpS748g-67" target="266Brj4KPM92YKpS748g-75">
          <mxGeometry relative="1" as="geometry">
            <Array as="points">
              <mxPoint x="620" y="750" />
            </Array>
          </mxGeometry>
        </mxCell>
        <mxCell id="266Brj4KPM92YKpS748g-79" value="Qty &amp;lt;= 0" style="edgeLabel;html=1;align=center;verticalAlign=middle;resizable=0;points=[];" vertex="1" connectable="0" parent="266Brj4KPM92YKpS748g-77">
          <mxGeometry x="-0.325" relative="1" as="geometry">
            <mxPoint as="offset" />
          </mxGeometry>
        </mxCell>
        <mxCell id="266Brj4KPM92YKpS748g-80" value="Batch Not Found" style="edgeLabel;html=1;align=center;verticalAlign=middle;resizable=0;points=[];" vertex="1" connectable="0" parent="266Brj4KPM92YKpS748g-77">
          <mxGeometry x="-0.165" y="3" relative="1" as="geometry">
            <mxPoint as="offset" />
          </mxGeometry>
        </mxCell>
        <mxCell id="266Brj4KPM92YKpS748g-81" value="Fail" style="edgeLabel;html=1;align=center;verticalAlign=middle;resizable=0;points=[];" vertex="1" connectable="0" parent="266Brj4KPM92YKpS748g-77">
          <mxGeometry x="-0.03" y="-3" relative="1" as="geometry">
            <mxPoint x="3" as="offset" />
          </mxGeometry>
        </mxCell>
        <mxCell id="266Brj4KPM92YKpS748g-67" value="Retrieve detail relate to this Batch Number" style="rounded=1;whiteSpace=wrap;html=1;" vertex="1" parent="WIyWlLk6GJQsqaUBKTNV-1">
          <mxGeometry x="560" y="470" width="120" height="60" as="geometry" />
        </mxCell>
        <mxCell id="266Brj4KPM92YKpS748g-73" style="edgeStyle=orthogonalEdgeStyle;rounded=0;orthogonalLoop=1;jettySize=auto;html=1;entryX=1;entryY=0.75;entryDx=0;entryDy=0;" edge="1" parent="WIyWlLk6GJQsqaUBKTNV-1" source="266Brj4KPM92YKpS748g-70" target="266Brj4KPM92YKpS748g-67">
          <mxGeometry relative="1" as="geometry">
            <Array as="points">
              <mxPoint x="770" y="515" />
              <mxPoint x="770" y="515" />
            </Array>
          </mxGeometry>
        </mxCell>
        <mxCell id="266Brj4KPM92YKpS748g-74" value="Respond" style="edgeLabel;html=1;align=center;verticalAlign=middle;resizable=0;points=[];" vertex="1" connectable="0" parent="266Brj4KPM92YKpS748g-73">
          <mxGeometry x="-0.1667" y="1" relative="1" as="geometry">
            <mxPoint x="-10" as="offset" />
          </mxGeometry>
        </mxCell>
        <mxCell id="266Brj4KPM92YKpS748g-84" style="edgeStyle=orthogonalEdgeStyle;rounded=0;orthogonalLoop=1;jettySize=auto;html=1;" edge="1" parent="WIyWlLk6GJQsqaUBKTNV-1" source="266Brj4KPM92YKpS748g-70" target="266Brj4KPM92YKpS748g-83">
          <mxGeometry relative="1" as="geometry" />
        </mxCell>
        <mxCell id="266Brj4KPM92YKpS748g-86" value="Get Request" style="edgeLabel;html=1;align=center;verticalAlign=middle;resizable=0;points=[];" vertex="1" connectable="0" parent="266Brj4KPM92YKpS748g-84">
          <mxGeometry x="-0.1833" y="-1" relative="1" as="geometry">
            <mxPoint as="offset" />
          </mxGeometry>
        </mxCell>
        <mxCell id="266Brj4KPM92YKpS748g-70" value="/api/v1/Sap/&lt;br&gt;SearchBatch" style="rounded=1;whiteSpace=wrap;html=1;" vertex="1" parent="WIyWlLk6GJQsqaUBKTNV-1">
          <mxGeometry x="800" y="470" width="120" height="60" as="geometry" />
        </mxCell>
        <mxCell id="266Brj4KPM92YKpS748g-76" style="edgeStyle=orthogonalEdgeStyle;rounded=0;orthogonalLoop=1;jettySize=auto;html=1;entryX=0.5;entryY=1;entryDx=0;entryDy=0;" edge="1" parent="WIyWlLk6GJQsqaUBKTNV-1" source="266Brj4KPM92YKpS748g-75" target="266Brj4KPM92YKpS748g-64">
          <mxGeometry relative="1" as="geometry" />
        </mxCell>
        <mxCell id="266Brj4KPM92YKpS748g-75" value="Error, display Message" style="rounded=1;whiteSpace=wrap;html=1;" vertex="1" parent="WIyWlLk6GJQsqaUBKTNV-1">
          <mxGeometry x="320" y="720" width="120" height="60" as="geometry" />
        </mxCell>
        <mxCell id="266Brj4KPM92YKpS748g-85" style="edgeStyle=orthogonalEdgeStyle;rounded=0;orthogonalLoop=1;jettySize=auto;html=1;entryX=1;entryY=0.75;entryDx=0;entryDy=0;" edge="1" parent="WIyWlLk6GJQsqaUBKTNV-1" source="266Brj4KPM92YKpS748g-83" target="266Brj4KPM92YKpS748g-70">
          <mxGeometry relative="1" as="geometry">
            <Array as="points">
              <mxPoint x="1010" y="515" />
              <mxPoint x="1010" y="515" />
            </Array>
          </mxGeometry>
        </mxCell>
        <mxCell id="266Brj4KPM92YKpS748g-89" value="Respond" style="edgeLabel;html=1;align=center;verticalAlign=middle;resizable=0;points=[];" vertex="1" connectable="0" parent="266Brj4KPM92YKpS748g-85">
          <mxGeometry x="0.25" y="-2" relative="1" as="geometry">
            <mxPoint x="5" as="offset" />
          </mxGeometry>
        </mxCell>
        <mxCell id="266Brj4KPM92YKpS748g-83" value="/b1s/v1/&lt;br&gt;BatchNumberDetails?$filter=Batch eq &#39;H36604&#39;" style="rounded=1;whiteSpace=wrap;html=1;" vertex="1" parent="WIyWlLk6GJQsqaUBKTNV-1">
          <mxGeometry x="1040" y="470" width="120" height="60" as="geometry" />
        </mxCell>
        <mxCell id="266Brj4KPM92YKpS748g-87" value="Post Request" style="edgeLabel;html=1;align=center;verticalAlign=middle;resizable=0;points=[];" vertex="1" connectable="0" parent="WIyWlLk6GJQsqaUBKTNV-1">
          <mxGeometry x="970" y="140" as="geometry" />
        </mxCell>
        <mxCell id="266Brj4KPM92YKpS748g-95" value="BODY" style="edgeStyle=orthogonalEdgeStyle;rounded=0;orthogonalLoop=1;jettySize=auto;html=1;entryX=0.5;entryY=1;entryDx=0;entryDy=0;" edge="1" parent="WIyWlLk6GJQsqaUBKTNV-1" source="266Brj4KPM92YKpS748g-93" target="266Brj4KPM92YKpS748g-12">
          <mxGeometry relative="1" as="geometry" />
        </mxCell>
        <mxCell id="266Brj4KPM92YKpS748g-93" value="&lt;div style=&quot;background-color: rgb(255, 255, 254); line-height: 18px;&quot;&gt;&lt;div&gt;{&lt;/div&gt;&lt;div&gt;&amp;nbsp;&amp;nbsp;&amp;nbsp;&amp;nbsp;&quot;CompanyDB&quot;:&amp;nbsp;&lt;span style=&quot;color: #0451a5;&quot;&gt;&quot;Homart_TEST8&quot;&lt;/span&gt;,&lt;/div&gt;&lt;div&gt;&amp;nbsp;&amp;nbsp;&amp;nbsp;&amp;nbsp;&lt;span style=&quot;color: #a31515;&quot;&gt;&quot;UserName&quot;&lt;/span&gt;:&amp;nbsp;&lt;span style=&quot;color: #0451a5;&quot;&gt;&quot;SAPCreatio&quot;&lt;/span&gt;,&lt;/div&gt;&lt;div&gt;&amp;nbsp;&amp;nbsp;&amp;nbsp;&amp;nbsp;&lt;span style=&quot;color: #a31515;&quot;&gt;&quot;Password&quot;&lt;/span&gt;:&amp;nbsp;&lt;span style=&quot;color: #0451a5;&quot;&gt;&quot;&quot;&lt;/span&gt;&lt;/div&gt;&lt;div&gt;}&lt;/div&gt;&lt;/div&gt;" style="whiteSpace=wrap;html=1;" vertex="1" parent="WIyWlLk6GJQsqaUBKTNV-1">
          <mxGeometry x="800" y="230" width="120" height="60" as="geometry" />
        </mxCell>
        <mxCell id="266Brj4KPM92YKpS748g-103" style="edgeStyle=orthogonalEdgeStyle;rounded=0;orthogonalLoop=1;jettySize=auto;html=1;entryX=0.5;entryY=1;entryDx=0;entryDy=0;" edge="1" parent="WIyWlLk6GJQsqaUBKTNV-1" source="266Brj4KPM92YKpS748g-100" target="266Brj4KPM92YKpS748g-102">
          <mxGeometry relative="1" as="geometry" />
        </mxCell>
        <mxCell id="266Brj4KPM92YKpS748g-100" value="Validate User&#39;s Login" style="rounded=1;whiteSpace=wrap;html=1;" vertex="1" parent="WIyWlLk6GJQsqaUBKTNV-1">
          <mxGeometry x="800" y="320" width="120" height="60" as="geometry" />
        </mxCell>
        <mxCell id="266Brj4KPM92YKpS748g-104" style="edgeStyle=orthogonalEdgeStyle;rounded=0;orthogonalLoop=1;jettySize=auto;html=1;entryX=0.5;entryY=1;entryDx=0;entryDy=0;" edge="1" parent="WIyWlLk6GJQsqaUBKTNV-1" source="266Brj4KPM92YKpS748g-102" target="266Brj4KPM92YKpS748g-100">
          <mxGeometry relative="1" as="geometry">
            <Array as="points">
              <mxPoint x="1130" y="400" />
              <mxPoint x="860" y="400" />
            </Array>
          </mxGeometry>
        </mxCell>
        <mxCell id="266Brj4KPM92YKpS748g-102" value="/b1s/v1/view.svc/&lt;br&gt;Homart_CheckUserAccount_B1SLQuery()?$filter=U_UserCode eq &#39;it&#39; and U_UserPW eq &#39;homart2116&#39;" style="rounded=1;whiteSpace=wrap;html=1;" vertex="1" parent="WIyWlLk6GJQsqaUBKTNV-1">
          <mxGeometry x="1040" y="230" width="120" height="60" as="geometry" />
        </mxCell>
      </root>
    </mxGraphModel>
  </diagram>
</mxfile>
